<?xml version="1.0" encoding="UTF-8"?>
<svg id="Livello_2" xmlns="http://www.w3.org/2000/svg" version="1.1" viewBox="0 0 73.7 52.1">
  <!-- Generator: Adobe Illustrator 29.1.0, SVG Export Plug-In . SVG Version: 2.1.0 Build 142)  -->
  <defs>
    <style>
      .st0 {
        fill: #fff;
      }
    </style>
  </defs>
  <g id="Livello_1-2">
    <path class="st0" d="M10.1,51.3V5.2l5,5H0V.9h21.7v50.4s-11.7,0-11.7,0Z"/>
    <path class="st0" d="M52.1,52.1c-4.1,0-7.8-1-11.1-3.1-3.3-2-5.8-5-7.7-8.9-1.9-3.9-2.8-8.6-2.8-14.1s.9-10.2,2.8-14.1c1.9-3.9,4.4-6.8,7.7-8.9C44.3,1,48,0,52.1,0s7.9,1,11.1,3.1,5.8,5,7.7,8.9c1.9,3.9,2.8,8.6,2.8,14.1s-.9,10.2-2.8,14.1c-1.9,3.9-4.4,6.8-7.7,8.9-3.2,2-7,3.1-11.1,3.1ZM52.1,42.3c2,0,3.7-.5,5.2-1.7,1.5-1.1,2.6-2.9,3.5-5.3s1.3-5.5,1.3-9.3-.4-6.9-1.3-9.3c-.8-2.4-2-4.1-3.5-5.3-1.5-1.1-3.2-1.7-5.2-1.7s-3.6.6-5.1,1.7c-1.5,1.1-2.6,2.9-3.5,5.3-.8,2.4-1.3,5.5-1.3,9.3s.4,6.9,1.3,9.3,2,4.2,3.5,5.3c1.5,1.1,3.2,1.7,5.1,1.7Z"/>
  </g>
</svg>