<?xml version="1.0" encoding="UTF-8"?><svg id="Livello_2" xmlns="http://www.w3.org/2000/svg" viewBox="0 0 73.73 52.13"><g id="Livello_1-2"><path d="M10.08,51.26V5.18l5.04,5.04H0V.86h21.74v50.4h-11.66Z"/><path d="M52.13,52.13c-4.13,0-7.82-1.02-11.09-3.06-3.26-2.04-5.83-5-7.7-8.89-1.87-3.89-2.81-8.59-2.81-14.11s.94-10.22,2.81-14.11c1.87-3.89,4.44-6.85,7.7-8.89,3.26-2.04,6.96-3.06,11.09-3.06s7.88,1.02,11.12,3.06c3.24,2.04,5.8,5,7.67,8.89,1.87,3.89,2.81,8.59,2.81,14.11s-.94,10.22-2.81,14.11c-1.87,3.89-4.43,6.85-7.67,8.89-3.24,2.04-6.95,3.06-11.12,3.06ZM52.13,42.26c1.97,0,3.68-.55,5.15-1.66,1.46-1.1,2.62-2.86,3.46-5.26.84-2.4,1.26-5.5,1.26-9.29s-.42-6.89-1.26-9.29c-.84-2.4-1.99-4.15-3.46-5.26-1.46-1.1-3.18-1.66-5.15-1.66s-3.61.55-5.08,1.66c-1.46,1.1-2.62,2.86-3.46,5.26-.84,2.4-1.26,5.5-1.26,9.29s.42,6.89,1.26,9.29c.84,2.4,1.99,4.15,3.46,5.26,1.46,1.1,3.16,1.66,5.08,1.66Z"/></g></svg>