<?xml version="1.0" encoding="UTF-8"?><svg id="Livello_2" xmlns="http://www.w3.org/2000/svg" viewBox="0 0 68.18 51.26"><g id="Livello_1-2"><path d="M10.08,51.26V5.18l5.04,5.04H0V.86h21.74v50.4h-11.66Z"/><path d="M30.1,51.26v-7.56l19.44-18.36c1.54-1.39,2.66-2.64,3.38-3.74.72-1.1,1.21-2.11,1.48-3.02.26-.91.4-1.75.4-2.52,0-2.02-.68-3.56-2.05-4.64s-3.37-1.62-6.01-1.62c-2.11,0-4.07.41-5.87,1.22-1.8.82-3.32,2.09-4.57,3.82l-8.5-5.47c1.92-2.88,4.61-5.16,8.06-6.84,3.46-1.68,7.44-2.52,11.95-2.52,3.74,0,7.02.61,9.83,1.84,2.81,1.22,4.99,2.94,6.55,5.15,1.56,2.21,2.34,4.85,2.34,7.92,0,1.63-.21,3.25-.61,4.86-.41,1.61-1.22,3.3-2.45,5.08-1.22,1.78-3.01,3.77-5.36,5.98l-16.13,15.19-2.23-4.25h28.44v9.5H30.1Z"/></g></svg>