<?xml version="1.0" encoding="UTF-8"?>
<svg id="Livello_2" xmlns="http://www.w3.org/2000/svg" version="1.1" viewBox="0 0 40.4 51.3">
  <!-- Generator: Adobe Illustrator 29.1.0, SVG Export Plug-In . SVG Version: 2.1.0 Build 142)  -->
  <defs>
    <style>
      .st0 {
        fill: #fff;
      }
    </style>
  </defs>
  <g id="Livello_1-2">
    <path class="st0" d="M2.3,51.3v-7.6l19.4-18.4c1.5-1.4,2.7-2.6,3.4-3.7s1.2-2.1,1.5-3c.3-.9.4-1.8.4-2.5,0-2-.7-3.6-2-4.6s-3.4-1.6-6-1.6-4.1.4-5.9,1.2c-1.8.8-3.3,2.1-4.6,3.8L0,9.4c1.9-2.9,4.6-5.2,8.1-6.8C11.5.8,15.5,0,20,0s7,.6,9.8,1.8c2.8,1.2,5,2.9,6.6,5.2,1.6,2.2,2.3,4.8,2.3,7.9s-.2,3.2-.6,4.9c-.4,1.6-1.2,3.3-2.5,5.1-1.2,1.8-3,3.8-5.4,6l-16.1,15.2-2.2-4.2h28.4v9.5H2.3Z"/>
  </g>
</svg>