<?xml version="1.0" encoding="UTF-8"?><svg id="Livello_2" xmlns="http://www.w3.org/2000/svg" viewBox="0 0 40.1 51.26"><g id="Livello_1-2"><path d="M19.22,51.26c-3.5,0-6.98-.47-10.44-1.4s-6.38-2.27-8.78-4l4.54-8.93c1.92,1.39,4.15,2.5,6.7,3.31,2.54.82,5.11,1.22,7.7,1.22,2.93,0,5.23-.58,6.91-1.73,1.68-1.15,2.52-2.74,2.52-4.75s-.74-3.43-2.23-4.54c-1.49-1.1-3.89-1.66-7.2-1.66h-5.33v-7.7l14.04-15.91,1.3,4.18H2.52V0h35.28v7.56l-13.97,15.91-5.9-3.38h3.38c6.19,0,10.87,1.39,14.04,4.18,3.17,2.78,4.75,6.36,4.75,10.73,0,2.83-.75,5.48-2.23,7.96-1.49,2.47-3.77,4.48-6.84,6.01-3.07,1.54-7.01,2.3-11.81,2.3Z"/></g></svg>