<?xml version="1.0" encoding="UTF-8"?>
<svg id="Livello_2" xmlns="http://www.w3.org/2000/svg" version="1.1" viewBox="0 0 40.1 51.3">
  <!-- Generator: Adobe Illustrator 29.1.0, SVG Export Plug-In . SVG Version: 2.1.0 Build 142)  -->
  <defs>
    <style>
      .st0 {
        fill: #fff;
      }
    </style>
  </defs>
  <g id="Livello_1-2">
    <path class="st0" d="M19.2,51.3c-3.5,0-7-.5-10.4-1.4s-6.4-2.3-8.8-4l4.5-8.9c1.9,1.4,4.2,2.5,6.7,3.3,2.5.8,5.1,1.2,7.7,1.2s5.2-.6,6.9-1.7c1.7-1.2,2.5-2.7,2.5-4.8s-.7-3.4-2.2-4.5c-1.5-1.1-3.9-1.7-7.2-1.7h-5.3v-7.7l14-15.9,1.3,4.2H2.5V0h35.3v7.6l-14,15.9-5.9-3.4h3.4c6.2,0,10.9,1.4,14,4.2,3.2,2.8,4.8,6.4,4.8,10.7s-.8,5.5-2.2,8c-1.5,2.5-3.8,4.5-6.8,6-3.1,1.5-7,2.3-11.8,2.3h0Z"/>
  </g>
</svg>