<?xml version="1.0" encoding="UTF-8"?><svg id="Livello_2" xmlns="http://www.w3.org/2000/svg" viewBox="0 0 40.18 51.26"><g id="Livello_1-2"><path d="M19.22,51.26c-3.5,0-6.97-.47-10.4-1.4-3.43-.94-6.37-2.27-8.82-4l4.61-8.93c1.92,1.39,4.14,2.5,6.66,3.31,2.52.82,5.08,1.22,7.67,1.22,2.93,0,5.23-.58,6.91-1.73,1.68-1.15,2.52-2.76,2.52-4.82,0-1.3-.34-2.45-1.01-3.46-.67-1.01-1.86-1.78-3.56-2.3-1.7-.53-4.09-.79-7.16-.79H3.74L6.34,0h30.74v9.36H10.51l6.05-5.33-1.8,20.23-6.05-5.33h10.66c4.99,0,9.01.68,12.06,2.05,3.05,1.37,5.27,3.23,6.66,5.58,1.39,2.35,2.09,5.02,2.09,7.99s-.74,5.72-2.23,8.24c-1.49,2.52-3.78,4.56-6.88,6.12-3.1,1.56-7.04,2.34-11.84,2.34Z"/></g></svg>