<?xml version="1.0" encoding="UTF-8"?>
<svg id="Livello_2" xmlns="http://www.w3.org/2000/svg" version="1.1" viewBox="0 0 40.2 51.3">
  <!-- Generator: Adobe Illustrator 29.1.0, SVG Export Plug-In . SVG Version: 2.1.0 Build 142)  -->
  <defs>
    <style>
      .st0 {
        fill: #fff;
      }
    </style>
  </defs>
  <g id="Livello_1-2">
    <path class="st0" d="M19.2,51.3c-3.5,0-7-.5-10.4-1.4-3.4-.9-6.4-2.3-8.8-4l4.6-8.9c1.9,1.4,4.1,2.5,6.7,3.3,2.5.8,5.1,1.2,7.7,1.2s5.2-.6,6.9-1.7c1.7-1.2,2.5-2.8,2.5-4.8s-.3-2.5-1-3.5c-.7-1-1.9-1.8-3.6-2.3-1.7-.5-4.1-.8-7.2-.8H3.7L6.3,0h30.7v9.4H10.5l6.1-5.3-1.8,20.2-6.1-5.3h10.7c5,0,9,.7,12.1,2,3,1.4,5.3,3.2,6.7,5.6s2.1,5,2.1,8-.7,5.7-2.2,8.2c-1.5,2.5-3.8,4.6-6.9,6.1-3.1,1.6-7,2.3-11.8,2.3h0Z"/>
  </g>
</svg>