<?xml version="1.0" encoding="UTF-8"?>
<svg id="Livello_2" xmlns="http://www.w3.org/2000/svg" version="1.1" viewBox="0 0 41.6 52.1">
  <!-- Generator: Adobe Illustrator 29.1.0, SVG Export Plug-In . SVG Version: 2.1.0 Build 142)  -->
  <defs>
    <style>
      .st0 {
        fill: #fff;
      }
    </style>
  </defs>
  <g id="Livello_1-2">
    <path class="st0" d="M22.5,52.1c-4.6,0-8.6-1-12-2.9-3.4-1.9-6-4.7-7.8-8.4C.9,37.1,0,32.6,0,27.2s1.1-10.7,3.3-14.8c2.2-4,5.2-7.1,9.1-9.2C16.2,1.1,20.7,0,25.7,0s5.3.3,7.7.9c2.5.6,4.6,1.4,6.3,2.6l-4.3,8.6c-1.4-1-2.9-1.6-4.5-2-1.6-.4-3.2-.5-5-.5-4.4,0-7.8,1.3-10.4,4-2.5,2.6-3.8,6.6-3.8,11.7s0,1.8,0,2.9c0,1.1.2,2.1.4,3.2l-3.2-3c.9-1.9,2.1-3.4,3.5-4.7,1.4-1.3,3.2-2.2,5.2-2.9,2-.6,4.2-1,6.6-1s6.2.6,8.8,1.9c2.6,1.3,4.7,3.1,6.2,5.5,1.6,2.4,2.3,5.1,2.3,8.3s-.8,6.4-2.6,8.9c-1.7,2.5-4,4.5-6.8,5.8s-6.1,2-9.7,2h0ZM21.9,43.4c1.6,0,3.1-.3,4.4-.9,1.3-.6,2.3-1.5,3-2.6s1.1-2.5,1.1-4c0-2.3-.8-4.1-2.3-5.5s-3.6-2-6.2-2-3.2.3-4.5,1-2.3,1.5-3.1,2.7c-.7,1.1-1.1,2.4-1.1,3.9s.4,2.7,1.1,3.8c.7,1.1,1.7,2,3,2.7,1.3.7,2.9,1,4.8,1h0Z"/>
  </g>
</svg>