<?xml version="1.0" encoding="UTF-8"?><svg id="Livello_2" xmlns="http://www.w3.org/2000/svg" viewBox="0 0 41.62 52.13"><g id="Livello_1-2"><path d="M22.54,52.13c-4.61,0-8.6-.96-11.99-2.88-3.38-1.92-5.99-4.73-7.81-8.42-1.82-3.7-2.74-8.26-2.74-13.68,0-5.81,1.09-10.73,3.28-14.76,2.18-4.03,5.21-7.1,9.07-9.22,3.86-2.11,8.32-3.17,13.36-3.17,2.69,0,5.26.29,7.7.86,2.45.58,4.56,1.44,6.34,2.59l-4.32,8.57c-1.39-.96-2.88-1.62-4.46-1.98-1.58-.36-3.24-.54-4.97-.54-4.37,0-7.82,1.32-10.37,3.96-2.54,2.64-3.82,6.55-3.82,11.74,0,.86.01,1.82.04,2.88.02,1.06.16,2.11.4,3.17l-3.24-3.02c.91-1.87,2.09-3.44,3.53-4.72,1.44-1.27,3.16-2.23,5.15-2.88,1.99-.65,4.19-.97,6.59-.97,3.26,0,6.19.65,8.78,1.94,2.59,1.3,4.67,3.12,6.23,5.47,1.56,2.35,2.34,5.11,2.34,8.28,0,3.41-.85,6.37-2.56,8.89-1.7,2.52-3.98,4.46-6.84,5.83-2.86,1.37-6.08,2.05-9.68,2.05ZM21.89,43.42c1.63,0,3.08-.3,4.36-.9,1.27-.6,2.27-1.48,2.99-2.63.72-1.15,1.08-2.47,1.08-3.96,0-2.3-.78-4.14-2.34-5.51-1.56-1.37-3.64-2.05-6.23-2.05-1.73,0-3.24.32-4.54.97s-2.32,1.54-3.06,2.66c-.74,1.13-1.12,2.44-1.12,3.92s.36,2.72,1.08,3.85c.72,1.13,1.73,2.02,3.02,2.66,1.3.65,2.88.97,4.75.97Z"/></g></svg>