<?xml version="1.0" encoding="UTF-8"?><svg id="Livello_2" xmlns="http://www.w3.org/2000/svg" viewBox="0 0 42.48 52.13"><g id="Livello_1-2"><path d="M21.17,52.13c-4.22,0-7.92-.64-11.09-1.91-3.17-1.27-5.64-3.07-7.42-5.4-1.78-2.33-2.66-5.05-2.66-8.17s.88-5.77,2.63-7.96c1.75-2.18,4.21-3.84,7.38-4.97,3.17-1.13,6.89-1.69,11.16-1.69s8.08.56,11.27,1.69c3.19,1.13,5.66,2.78,7.42,4.97,1.75,2.18,2.63,4.84,2.63,7.96s-.89,5.84-2.66,8.17c-1.78,2.33-4.26,4.13-7.45,5.4-3.19,1.27-6.92,1.91-11.2,1.91ZM21.17,27.94c-3.89,0-7.28-.53-10.19-1.58-2.9-1.06-5.16-2.6-6.77-4.64-1.61-2.04-2.41-4.48-2.41-7.31,0-2.98.82-5.53,2.45-7.67,1.63-2.14,3.91-3.79,6.84-4.97,2.93-1.18,6.29-1.76,10.08-1.76s7.28.59,10.19,1.76c2.9,1.18,5.18,2.83,6.84,4.97,1.66,2.14,2.48,4.69,2.48,7.67s-.8,5.27-2.41,7.31c-1.61,2.04-3.88,3.59-6.8,4.64-2.93,1.06-6.36,1.58-10.3,1.58ZM21.17,43.56c2.93,0,5.24-.65,6.95-1.94,1.7-1.3,2.56-3.07,2.56-5.33s-.85-4.02-2.56-5.29c-1.7-1.27-4.02-1.91-6.95-1.91s-5.16.64-6.84,1.91c-1.68,1.27-2.52,3.04-2.52,5.29s.84,4.03,2.52,5.33c1.68,1.3,3.96,1.94,6.84,1.94ZM21.17,21.1c2.45,0,4.38-.55,5.8-1.66,1.42-1.1,2.12-2.62,2.12-4.54,0-2.02-.73-3.58-2.2-4.68-1.46-1.1-3.37-1.66-5.72-1.66s-4.18.55-5.62,1.66c-1.44,1.1-2.16,2.66-2.16,4.68s.7,3.43,2.09,4.54c1.39,1.1,3.29,1.66,5.69,1.66Z"/></g></svg>