<?xml version="1.0" encoding="UTF-8"?>
<svg id="Livello_2" xmlns="http://www.w3.org/2000/svg" version="1.1" viewBox="0 0 42.5 52.1">
  <!-- Generator: Adobe Illustrator 29.1.0, SVG Export Plug-In . SVG Version: 2.1.0 Build 142)  -->
  <defs>
    <style>
      .st0 {
        fill: #fff;
      }
    </style>
  </defs>
  <g id="Livello_1-2">
    <path class="st0" d="M21.2,52.1c-4.2,0-7.9-.6-11.1-1.9s-5.6-3.1-7.4-5.4C.9,42.5,0,39.8,0,36.7s.9-5.8,2.6-8c1.8-2.2,4.2-3.8,7.4-5s6.9-1.7,11.2-1.7,8.1.6,11.3,1.7c3.2,1.1,5.7,2.8,7.4,5,1.8,2.2,2.6,4.8,2.6,8s-.9,5.8-2.7,8.2c-1.8,2.3-4.3,4.1-7.5,5.4-3.2,1.3-6.9,1.9-11.2,1.9h0ZM21.2,27.9c-3.9,0-7.3-.5-10.2-1.6-2.9-1.1-5.2-2.6-6.8-4.6-1.6-2-2.4-4.5-2.4-7.3s.8-5.5,2.5-7.7c1.6-2.1,3.9-3.8,6.8-5C14,.6,17.4,0,21.2,0s7.3.6,10.2,1.8c2.9,1.2,5.2,2.8,6.8,5,1.7,2.1,2.5,4.7,2.5,7.7s-.8,5.3-2.4,7.3c-1.6,2-3.9,3.6-6.8,4.6-2.9,1.1-6.4,1.6-10.3,1.6ZM21.2,43.6c2.9,0,5.2-.7,6.9-1.9,1.7-1.3,2.6-3.1,2.6-5.3s-.9-4-2.6-5.3c-1.7-1.3-4-1.9-7-1.9s-5.2.6-6.8,1.9-2.5,3-2.5,5.3.8,4,2.5,5.3c1.7,1.3,4,1.9,6.8,1.9ZM21.2,21.1c2.5,0,4.4-.5,5.8-1.7,1.4-1.1,2.1-2.6,2.1-4.5s-.7-3.6-2.2-4.7c-1.5-1.1-3.4-1.7-5.7-1.7s-4.2.6-5.6,1.7c-1.4,1.1-2.2,2.7-2.2,4.7s.7,3.4,2.1,4.5c1.4,1.1,3.3,1.7,5.7,1.7Z"/>
  </g>
</svg>