<?xml version="1.0" encoding="UTF-8"?><svg id="Livello_2" xmlns="http://www.w3.org/2000/svg" viewBox="0 0 41.62 52.13"><g id="Livello_1-2"><path d="M19.08,0c4.66,0,8.66.96,12.02,2.88,3.36,1.92,5.95,4.72,7.78,8.39,1.82,3.67,2.74,8.24,2.74,13.72,0,5.81-1.09,10.73-3.28,14.76-2.18,4.03-5.2,7.1-9.04,9.22-3.84,2.11-8.3,3.17-13.39,3.17-2.64,0-5.18-.29-7.63-.86-2.45-.58-4.56-1.44-6.34-2.59l4.32-8.57c1.39.96,2.88,1.62,4.46,1.98,1.58.36,3.24.54,4.97.54,4.32,0,7.76-1.32,10.33-3.96,2.57-2.64,3.85-6.55,3.85-11.74,0-.86-.02-1.82-.07-2.88-.05-1.06-.17-2.11-.36-3.17l3.17,3.02c-.82,1.87-1.97,3.44-3.46,4.72-1.49,1.27-3.22,2.23-5.18,2.88-1.97.65-4.18.97-6.62.97-3.22,0-6.13-.65-8.75-1.94-2.62-1.3-4.7-3.12-6.26-5.47-1.56-2.35-2.34-5.11-2.34-8.28,0-3.46.85-6.43,2.56-8.93,1.7-2.5,4.01-4.43,6.91-5.8C12.37.68,15.58,0,19.08,0ZM19.8,8.71c-1.68,0-3.14.3-4.39.9-1.25.6-2.23,1.46-2.95,2.59-.72,1.13-1.08,2.46-1.08,4,0,2.3.78,4.14,2.34,5.51,1.56,1.37,3.64,2.05,6.23,2.05,1.68,0,3.18-.32,4.5-.97,1.32-.65,2.34-1.55,3.06-2.7.72-1.15,1.08-2.45,1.08-3.89s-.35-2.72-1.04-3.85c-.7-1.13-1.69-2.02-2.99-2.66-1.3-.65-2.88-.97-4.75-.97Z"/></g></svg>