<?xml version="1.0" encoding="UTF-8"?>
<svg id="Livello_2" xmlns="http://www.w3.org/2000/svg" version="1.1" viewBox="0 0 41.6 52.1">
  <!-- Generator: Adobe Illustrator 29.1.0, SVG Export Plug-In . SVG Version: 2.1.0 Build 142)  -->
  <defs>
    <style>
      .st0 {
        fill: #fff;
      }
    </style>
  </defs>
  <g id="Livello_1-2">
    <path class="st0" d="M19.1,0c4.7,0,8.7,1,12,2.9,3.4,1.9,5.9,4.7,7.8,8.4,1.8,3.7,2.7,8.2,2.7,13.7s-1.1,10.7-3.3,14.8c-2.2,4-5.2,7.1-9,9.2-3.8,2.1-8.3,3.2-13.4,3.2s-5.2-.3-7.6-.9c-2.4-.6-4.6-1.4-6.3-2.6l4.3-8.6c1.4,1,2.9,1.6,4.5,2s3.2.5,5,.5c4.3,0,7.8-1.3,10.3-4s3.9-6.5,3.9-11.7,0-1.8,0-2.9-.2-2.1-.4-3.2l3.2,3c-.8,1.9-2,3.4-3.5,4.7-1.5,1.3-3.2,2.2-5.2,2.9-2,.7-4.2,1-6.6,1s-6.1-.6-8.8-1.9c-2.6-1.3-4.7-3.1-6.3-5.5C.8,22.7,0,20,0,16.8s.9-6.4,2.6-8.9c1.7-2.5,4-4.4,6.9-5.8C12.4.7,15.6,0,19.1,0ZM19.8,8.7c-1.7,0-3.1.3-4.4.9-1.2.6-2.2,1.5-2.9,2.6s-1.1,2.5-1.1,4c0,2.3.8,4.1,2.3,5.5s3.6,2,6.2,2,3.2-.3,4.5-1,2.3-1.5,3.1-2.7c.7-1.1,1.1-2.5,1.1-3.9s-.4-2.7-1-3.9c-.7-1.1-1.7-2-3-2.7-1.3-.6-2.9-1-4.8-1h0Z"/>
  </g>
</svg>