<?xml version="1.0" encoding="UTF-8"?><svg id="Livello_2" xmlns="http://www.w3.org/2000/svg" viewBox="0 0 80.46 99.74"><defs><style>.cls-1{fill:#fff;}</style></defs><g id="Livello_1-2"><path class="cls-1" d="M63.56,39.74c-5.87-2.75-13.64-4.12-23.33-4.12h-6.53l1.19-14.25h39.43V0H12.01l-4.89,57.13h26.54c5.03,0,8.89.4,11.59,1.19,2.7.79,4.61,1.96,5.73,3.49s1.68,3.28,1.68,5.24c0,3.26-1.45,5.8-4.33,7.61-2.89,1.82-6.66,2.72-11.32,2.72s-9.34-.7-14.04-2.09c-4.7-1.4-9.06-3.4-13.06-6.01L0,90.1c4.93,3.07,10.8,5.45,17.6,7.12,6.8,1.68,13.55,2.51,20.26,2.51,9.87,0,17.93-1.58,24.17-4.75,6.24-3.17,10.87-7.29,13.9-12.36,3.02-5.08,4.54-10.5,4.54-16.27s-1.35-10.97-4.05-15.58c-2.7-4.61-6.98-8.29-12.85-11.04Z"/></g></svg>