<?xml version="1.0" encoding="UTF-8"?><svg id="Livello_2" xmlns="http://www.w3.org/2000/svg" viewBox="0 0 84.93 101.7"><defs><style>.cls-1{fill:#fff;}</style></defs><g id="Livello_1-2"><path class="cls-1" d="M70.93,48.19c2.13-1.49,3.99-3.18,5.55-5.09,3.3-4.05,4.96-8.92,4.96-14.6s-1.66-10.9-4.96-15.09c-3.31-4.19-7.87-7.47-13.69-9.85-5.82-2.38-12.6-3.56-20.33-3.56s-14.39,1.19-20.26,3.56c-5.87,2.37-10.46,5.66-13.76,9.85-3.31,4.19-4.96,9.22-4.96,15.09s1.68,10.55,5.03,14.6c1.57,1.9,3.43,3.58,5.54,5.06-3.47,1.94-6.37,4.3-8.68,7.09-3.59,4.33-5.38,9.57-5.38,15.72s1.79,11.66,5.38,16.27c3.58,4.61,8.54,8.17,14.88,10.69,6.33,2.51,13.74,3.77,22.21,3.77s15.9-1.26,22.28-3.77c6.38-2.51,11.34-6.08,14.88-10.69,3.54-4.61,5.31-10.03,5.31-16.27s-1.79-11.39-5.38-15.72c-2.3-2.78-5.18-5.12-8.63-7.06ZM34.09,22.07c2.14-1.77,4.93-2.65,8.38-2.65s6.26.89,8.45,2.65c2.19,1.77,3.28,4.33,3.28,7.68,0,3.17-1.07,5.66-3.21,7.47-2.14,1.82-4.98,2.72-8.52,2.72s-6.24-.91-8.38-2.72c-2.14-1.82-3.21-4.31-3.21-7.47,0-3.35,1.07-5.91,3.21-7.68ZM53.15,79.07c-2.65,2.14-6.22,3.21-10.69,3.21s-8.03-1.07-10.69-3.21c-2.65-2.14-3.98-5.12-3.98-8.94s1.33-6.68,3.98-8.87c2.65-2.19,6.22-3.28,10.69-3.28s8.03,1.1,10.69,3.28c2.65,2.19,3.98,5.15,3.98,8.87s-1.33,6.8-3.98,8.94Z"/></g></svg>