<?xml version="1.0" encoding="UTF-8"?><svg id="Livello_2" xmlns="http://www.w3.org/2000/svg" viewBox="0 0 136.06 99.74"><defs><style>.cls-1{fill:#fff;}</style></defs><g id="Livello_1-2"><polygon class="cls-1" points="0 23.33 18.16 23.33 18.16 99.74 45.82 99.74 45.82 1.96 0 1.96 0 23.33"/><path class="cls-1" d="M98.32,77.81l18.46-17.04c4.66-4.28,8.17-8.17,10.55-11.66,2.38-3.49,3.98-6.8,4.82-9.92.84-3.12,1.26-6.26,1.26-9.43,0-6.05-1.61-11.32-4.82-15.79-3.21-4.47-7.66-7.91-13.34-10.34-5.68-2.42-12.29-3.63-19.84-3.63-9.59,0-17.84,1.86-24.73,5.59-6.89,3.73-12.15,8.66-15.79,14.81l20.54,11.45c1.96-3.16,4.47-5.54,7.54-7.12,3.07-1.58,6.38-2.38,9.92-2.38,4.19,0,7.33.89,9.43,2.65,2.09,1.77,3.14,4.24,3.14,7.4,0,1.31-.21,2.72-.63,4.26-.42,1.54-1.26,3.24-2.51,5.1-1.26,1.86-3.19,4.01-5.8,6.43l-36.6,34.22v17.32h76.13v-21.93h-37.74Z"/></g></svg>