<?xml version="1.0" encoding="UTF-8"?><svg id="Livello_2" xmlns="http://www.w3.org/2000/svg" viewBox="0 0 146.68 101.7"><defs><style>.cls-1{fill:#fff;}</style></defs><g id="Livello_1-2"><polygon class="cls-1" points="0 23.33 18.16 23.33 18.16 99.74 45.82 99.74 45.82 1.96 0 1.96 0 23.33"/><path class="cls-1" d="M125.79,6.01c-6.47-4-13.85-6.01-22.14-6.01s-15.81,2-22.28,6.01c-6.47,4.01-11.57,9.78-15.3,17.32-3.73,7.54-5.59,16.72-5.59,27.52s1.86,19.98,5.59,27.52c3.72,7.54,8.82,13.32,15.3,17.32,6.47,4.01,13.9,6.01,22.28,6.01s15.67-2,22.14-6.01c6.47-4,11.57-9.78,15.3-17.32,3.72-7.54,5.59-16.72,5.59-27.52s-1.86-19.98-5.59-27.52c-3.73-7.54-8.82-13.32-15.3-17.32ZM116.92,67.26c-1.31,4.15-3.1,7.15-5.38,9.01-2.28,1.86-4.91,2.79-7.89,2.79s-5.61-.93-7.89-2.79c-2.28-1.86-4.1-4.86-5.45-9.01-1.35-4.14-2.03-9.61-2.03-16.41s.67-12.38,2.03-16.48c1.35-4.1,3.17-7.08,5.45-8.94,2.28-1.86,4.91-2.79,7.89-2.79s5.61.93,7.89,2.79c2.28,1.86,4.07,4.84,5.38,8.94,1.3,4.1,1.96,9.59,1.96,16.48s-.65,12.27-1.96,16.41Z"/></g></svg>