<?xml version="1.0" encoding="UTF-8"?><svg id="Livello_2" xmlns="http://www.w3.org/2000/svg" viewBox="0 0 83.68 101.7"><defs><style>.cls-1{fill:#fff;}</style></defs><g id="Livello_1-2"><path class="cls-1" d="M66.84,41.28c-5.08-2.56-10.69-3.84-16.83-3.84-4.56,0-8.69.61-12.36,1.82-3.68,1.21-6.84,2.98-9.5,5.31-.05.05-.1.1-.15.15.61-6.78,2.79-12.1,6.58-15.93,4.52-4.56,10.55-6.84,18.09-6.84,3.17,0,6.26.35,9.29,1.05,3.03.7,5.94,2.03,8.73,3.98l10.06-19.84c-3.54-2.24-7.85-3.98-12.92-5.24-5.08-1.26-10.36-1.89-15.86-1.89-10.25,0-19.26,2.1-27.03,6.29-7.78,4.19-13.88,10.27-18.3,18.23C2.21,32.48,0,42.14,0,53.5c0,10.53,1.89,19.37,5.66,26.54,3.77,7.17,9.03,12.57,15.79,16.2,6.75,3.63,14.69,5.45,23.82,5.45,7.17,0,13.64-1.37,19.42-4.12,5.77-2.75,10.38-6.61,13.83-11.59,3.44-4.98,5.17-10.87,5.17-17.67,0-6.24-1.54-11.66-4.61-16.27s-7.15-8.19-12.22-10.76ZM55.18,76.13c-1.12,1.86-2.68,3.31-4.68,4.33-2,1.03-4.31,1.54-6.91,1.54-2.79,0-5.22-.53-7.26-1.61-2.05-1.07-3.63-2.51-4.75-4.33-1.12-1.82-1.68-3.93-1.68-6.36s.58-4.7,1.75-6.57c1.16-1.86,2.75-3.31,4.75-4.33,2-1.02,4.35-1.54,7.05-1.54,4,0,7.24,1.12,9.71,3.35,2.47,2.24,3.7,5.22,3.7,8.94,0,2.51-.56,4.7-1.68,6.57Z"/></g></svg>