<?xml version="1.0" encoding="UTF-8"?><svg id="Livello_2" xmlns="http://www.w3.org/2000/svg" viewBox="0 0 83.68 101.7"><defs><style>.cls-1{fill:#fff;}</style></defs><g id="Livello_1-2"><path class="cls-1" d="M62.23,5.45C55.48,1.82,47.5,0,38.28,0c-7.08,0-13.5,1.38-19.28,4.12-5.78,2.75-10.39,6.61-13.83,11.59C1.72,20.7,0,26.59,0,33.39c0,6.24,1.54,11.66,4.61,16.27s7.15,8.2,12.22,10.76c5.08,2.56,10.69,3.84,16.83,3.84,4.66,0,8.8-.6,12.43-1.82,3.6-1.2,6.74-2.95,9.42-5.25-.63,6.68-2.78,11.94-6.49,15.72-4.47,4.56-10.48,6.85-18.02,6.85-3.17,0-6.26-.35-9.29-1.05-3.03-.7-5.94-2.03-8.73-3.98l-10.06,19.84c3.63,2.23,7.96,3.98,12.99,5.24,5.03,1.26,10.24,1.89,15.65,1.89,10.34,0,19.39-2.09,27.17-6.29,7.77-4.19,13.88-10.27,18.3-18.23,4.42-7.96,6.64-17.62,6.64-28.99,0-10.62-1.89-19.49-5.66-26.61-3.77-7.12-9.03-12.5-15.78-16.13ZM52.11,38.56c-1.12,1.86-2.7,3.31-4.75,4.33-2.05,1.03-4.42,1.54-7.12,1.54-4.01,0-7.24-1.12-9.71-3.35-2.47-2.23-3.7-5.21-3.7-8.94,0-2.61.58-4.82,1.75-6.64,1.16-1.82,2.72-3.23,4.68-4.26,1.96-1.02,4.24-1.54,6.84-1.54,2.79,0,5.21.54,7.26,1.61,2.05,1.07,3.63,2.52,4.75,4.33,1.12,1.82,1.68,3.94,1.68,6.36s-.56,4.7-1.68,6.57Z"/></g></svg>