<?xml version="1.0" encoding="UTF-8"?><svg id="Livello_2" xmlns="http://www.w3.org/2000/svg" viewBox="0 0 80.6 99.74"><defs><style>.cls-1{fill:#fff;}</style></defs><g id="Livello_1-2"><path class="cls-1" d="M71.17,46.17c-4-3.47-9.22-5.82-15.62-7.08l20.16-21.76V0H5.03v21.37h38.56l-17.47,18.86v17.46h11.59c5.31,0,9.13.86,11.46,2.58,2.33,1.72,3.49,4.03,3.49,6.91,0,3.26-1.4,5.78-4.19,7.54-2.79,1.77-6.57,2.65-11.32,2.65s-9.24-.7-14.04-2.09c-4.8-1.4-9.15-3.4-13.06-6.01L0,90.1c5.03,3.07,10.92,5.45,17.67,7.12,6.75,1.68,13.53,2.51,20.33,2.51,9.87,0,17.93-1.56,24.17-4.68,6.24-3.12,10.87-7.15,13.9-12.08,3.02-4.94,4.54-10.2,4.54-15.79,0-8.57-3.14-15.58-9.43-21.02Z"/></g></svg>